<svg width="200" height="150" viewBox="0 0 200 150" fill="none" xmlns="http://www.w3.org/2000/svg">
  <defs>
    <linearGradient id="personGrad1" x1="0%" y1="0%" x2="100%" y2="100%">
      <stop offset="0%" style="stop-color:#8b5cf6;stop-opacity:1" />
      <stop offset="100%" style="stop-color:#7c3aed;stop-opacity:1" />
    </linearGradient>
    <linearGradient id="personGrad2" x1="0%" y1="0%" x2="100%" y2="100%">
      <stop offset="0%" style="stop-color:#06b6d4;stop-opacity:1" />
      <stop offset="100%" style="stop-color:#0891b2;stop-opacity:1" />
    </linearGradient>
    <linearGradient id="personGrad3" x1="0%" y1="0%" x2="100%" y2="100%">
      <stop offset="0%" style="stop-color:#10b981;stop-opacity:1" />
      <stop offset="100%" style="stop-color:#059669;stop-opacity:1" />
    </linearGradient>
  </defs>
  
  <!-- Background circle -->
  <circle cx="100" cy="75" r="65" fill="#f3e8ff" opacity="0.8"/>
  
  <!-- Support circle background -->
  <circle cx="100" cy="75" r="45" fill="transparent" stroke="#e5e7eb" stroke-width="2" stroke-dasharray="5,5" opacity="0.5"/>
  
  <!-- Person 1 (center-left) -->
  <g transform="translate(75, 65)">
    <circle cx="0" cy="0" r="8" fill="url(#personGrad1)"/>
    <rect x="-6" y="8" width="12" height="16" rx="6" fill="url(#personGrad1)"/>
    <!-- Speech bubble -->
    <circle cx="-20" cy="-10" r="8" fill="white" stroke="#d1d5db"/>
    <path d="M-15 -5 L-10 0 L-20 -2 Z" fill="white"/>
    <circle cx="-23" cy="-12" r="1" fill="#8b5cf6"/>
    <circle cx="-20" cy="-12" r="1" fill="#8b5cf6"/>
    <circle cx="-17" cy="-12" r="1" fill="#8b5cf6"/>
  </g>
  
  <!-- Person 2 (center-right) -->
  <g transform="translate(125, 65)">
    <circle cx="0" cy="0" r="8" fill="url(#personGrad2)"/>
    <rect x="-6" y="8" width="12" height="16" rx="6" fill="url(#personGrad2)"/>
    <!-- Speech bubble -->
    <circle cx="20" cy="-10" r="8" fill="white" stroke="#d1d5db"/>
    <path d="M15 -5 L10 0 L20 -2 Z" fill="white"/>
    <path d="M16 -12 Q20 -15 24 -12 Q20 -9 16 -12" stroke="#06b6d4" stroke-width="1" fill="transparent"/>
  </g>
  
  <!-- Person 3 (top) -->
  <g transform="translate(100, 45)">
    <circle cx="0" cy="0" r="7" fill="url(#personGrad3)"/>
    <rect x="-5" y="7" width="10" height="14" rx="5" fill="url(#personGrad3)"/>
    <!-- Speech bubble -->
    <circle cx="0" cy="-15" r="7" fill="white" stroke="#d1d5db"/>
    <path d="M2 -10 L0 -5 L-2 -10 Z" fill="white"/>
    <!-- Heart in bubble -->
    <path d="M-3 -18 C-3 -20 0 -21 3 -18 C6 -21 9 -20 9 -18 C9 -15 3 -12 3 -12 C3 -12 -3 -15 -3 -18" fill="#ef4444" transform="scale(0.3) translate(-10, 50)"/>
  </g>
  
  <!-- Person 4 (bottom-left) -->
  <g transform="translate(85, 95)">
    <circle cx="0" cy="0" r="6" fill="url(#personGrad1)" opacity="0.8"/>
    <rect x="-4" y="6" width="8" height="12" rx="4" fill="url(#personGrad1)" opacity="0.8"/>
  </g>
  
  <!-- Person 5 (bottom-right) -->
  <g transform="translate(115, 95)">
    <circle cx="0" cy="0" r="6" fill="url(#personGrad2)" opacity="0.8"/>
    <rect x="-4" y="6" width="8" height="12" rx="4" fill="url(#personGrad2)" opacity="0.8"/>
  </g>
  
  <!-- Connection lines -->
  <g opacity="0.3">
    <line x1="75" y1="75" x2="125" y2="75" stroke="#8b5cf6" stroke-width="2"/>
    <line x1="85" y1="85" x2="100" y2="60" stroke="#10b981" stroke-width="1.5"/>
    <line x1="115" y1="85" x2="100" y2="60" stroke="#06b6d4" stroke-width="1.5"/>
    <line x1="85" y1="95" x2="115" y2="95" stroke="#d1d5db" stroke-width="1"/>
  </g>
  
  <!-- Floating support symbols -->
  <g transform="translate(140, 40)" opacity="0.6">
    <circle cx="0" cy="0" r="8" fill="#fef3c7"/>
    <path d="M-3 -2 L0 -5 L3 -2 M0 -5 L0 2" stroke="#f59e0b" stroke-width="2" stroke-linecap="round"/>
    <circle cx="0" cy="4" r="1" fill="#f59e0b"/>
  </g>
  
  <g transform="translate(60, 40)" opacity="0.6">
    <rect x="-6" y="-6" width="12" height="12" rx="6" fill="#dcfce7"/>
    <path d="M-2 -1 L0 1 L4 -3" stroke="#10b981" stroke-width="2" stroke-linecap="round"/>
  </g>
  
  <!-- Hands joining (bottom) -->
  <g transform="translate(100, 115)" opacity="0.7">
    <ellipse cx="-8" cy="0" rx="5" ry="3" fill="#f3e8ff"/>
    <ellipse cx="8" cy="0" rx="5" ry="3" fill="#ecfdf5"/>
    <ellipse cx="0" cy="-2" rx="6" ry="4" fill="#fef3c7"/>
  </g>
</svg>