<svg width="200" height="150" viewBox="0 0 200 150" fill="none" xmlns="http://www.w3.org/2000/svg">
  <defs>
    <linearGradient id="brainGrad" x1="0%" y1="0%" x2="100%" y2="100%">
      <stop offset="0%" style="stop-color:#3b82f6;stop-opacity:1" />
      <stop offset="100%" style="stop-color:#1d4ed8;stop-opacity:1" />
    </linearGradient>
    <linearGradient id="clipboardGrad" x1="0%" y1="0%" x2="100%" y2="100%">
      <stop offset="0%" style="stop-color:#f9fafb;stop-opacity:1" />
      <stop offset="100%" style="stop-color:#e5e7eb;stop-opacity:1" />
    </linearGradient>
  </defs>
  
  <!-- Background circle -->
  <circle cx="100" cy="75" r="65" fill="#eff6ff" opacity="0.8"/>
  
  <!-- Clipboard -->
  <rect x="70" y="30" width="60" height="80" rx="5" fill="url(#clipboardGrad)" stroke="#d1d5db" stroke-width="2"/>
  <rect x="65" y="25" width="70" height="12" rx="6" fill="#6b7280"/>
  <rect x="75" y="28" width="50" height="6" rx="3" fill="white"/>
  
  <!-- Checkboxes and lines on clipboard -->
  <rect x="80" y="45" width="8" height="8" fill="#10b981" rx="2"/>
  <path d="M82 48 L84 50 L88 46" stroke="white" stroke-width="2" stroke-linecap="round"/>
  <rect x="90" y="45" width="35" height="3" fill="#d1d5db" rx="1"/>
  
  <rect x="80" y="60" width="8" height="8" fill="#3b82f6" rx="2"/>
  <path d="M82 63 L84 65 L88 61" stroke="white" stroke-width="2" stroke-linecap="round"/>
  <rect x="90" y="60" width="30" height="3" fill="#d1d5db" rx="1"/>
  
  <rect x="80" y="75" width="8" height="8" fill="#f59e0b" rx="2"/>
  <path d="M82 78 L84 80 L88 76" stroke="white" stroke-width="2" stroke-linecap="round"/>
  <rect x="90" y="75" width="40" height="3" fill="#d1d5db" rx="1"/>
  
  <rect x="80" y="90" width="8" height="8" fill="#e5e7eb" rx="2" stroke="#9ca3af"/>
  <rect x="90" y="90" width="25" height="3" fill="#d1d5db" rx="1"/>
  
  <!-- Brain icon -->
  <g transform="translate(120, 85)">
    <path d="M0 10 C0 4 4 0 10 0 C16 0 20 4 20 10 C20 8 22 6 26 6 C30 6 32 8 32 12 C32 16 30 18 26 18 C22 18 20 16 20 14 C20 20 16 24 10 24 C4 24 0 20 0 14 C0 16 -2 18 -6 18 C-10 18 -12 16 -12 12 C-12 8 -10 6 -6 6 C-2 6 0 8 0 10 Z" fill="url(#brainGrad)"/>
    <circle cx="8" cy="10" r="2" fill="#1d4ed8" opacity="0.7"/>
    <circle cx="16" cy="12" r="1.5" fill="#1d4ed8" opacity="0.7"/>
    <circle cx="12" cy="16" r="1" fill="#1d4ed8" opacity="0.7"/>
  </g>
  
  <!-- Analysis lines -->
  <g opacity="0.5">
    <line x1="40" y1="60" x2="60" y2="70" stroke="#3b82f6" stroke-width="2"/>
    <line x1="140" y1="45" x2="160" y2="35" stroke="#10b981" stroke-width="2"/>
    <line x1="45" y1="90" x2="65" y2="95" stroke="#f59e0b" stroke-width="2"/>
  </g>
</svg>