<svg width="800" height="600" viewBox="0 0 800 600" fill="none" xmlns="http://www.w3.org/2000/svg">
  <!-- Background gradient -->
  <defs>
    <linearGradient id="bgGrad" x1="0%" y1="0%" x2="100%" y2="100%">
      <stop offset="0%" style="stop-color:#f0f9ff;stop-opacity:1" />
      <stop offset="100%" style="stop-color:#e0f2fe;stop-opacity:1" />
    </linearGradient>
    <linearGradient id="treeGrad" x1="0%" y1="0%" x2="0%" y2="100%">
      <stop offset="0%" style="stop-color:#10b981;stop-opacity:1" />
      <stop offset="100%" style="stop-color:#059669;stop-opacity:1" />
    </linearGradient>
    <linearGradient id="buildingGrad" x1="0%" y1="0%" x2="0%" y2="100%">
      <stop offset="0%" style="stop-color:#6366f1;stop-opacity:1" />
      <stop offset="100%" style="stop-color:#4f46e5;stop-opacity:1" />
    </linearGradient>
  </defs>
  
  <!-- Background -->
  <rect width="800" height="600" fill="url(#bgGrad)"/>
  
  <!-- Campus buildings silhouette -->
  <rect x="50" y="250" width="120" height="200" fill="url(#buildingGrad)" opacity="0.8"/>
  <rect x="60" y="240" width="100" height="20" fill="url(#buildingGrad)" opacity="0.6"/>
  <rect x="200" y="280" width="100" height="170" fill="url(#buildingGrad)" opacity="0.7"/>
  <rect x="210" y="270" width="80" height="20" fill="url(#buildingGrad)" opacity="0.5"/>
  <rect x="330" y="260" width="90" height="190" fill="url(#buildingGrad)" opacity="0.8"/>
  <rect x="450" y="290" width="110" height="160" fill="url(#buildingGrad)" opacity="0.7"/>
  <rect x="590" y="270" width="95" height="180" fill="url(#buildingGrad)" opacity="0.8"/>
  
  <!-- Windows on buildings -->
  <rect x="70" y="270" width="15" height="20" fill="#fef3c7" opacity="0.8"/>
  <rect x="95" y="270" width="15" height="20" fill="#fef3c7" opacity="0.6"/>
  <rect x="120" y="270" width="15" height="20" fill="#fef3c7" opacity="0.8"/>
  <rect x="220" y="300" width="12" height="18" fill="#fef3c7" opacity="0.7"/>
  <rect x="240" y="300" width="12" height="18" fill="#fef3c7" opacity="0.8"/>
  <rect x="260" y="300" width="12" height="18" fill="#fef3c7" opacity="0.6"/>
  
  <!-- Trees and greenery -->
  <circle cx="150" cy="420" r="40" fill="url(#treeGrad)" opacity="0.8"/>
  <rect x="145" y="420" width="10" height="30" fill="#92400e"/>
  <circle cx="320" cy="430" r="35" fill="url(#treeGrad)" opacity="0.7"/>
  <rect x="315" y="430" width="10" height="25" fill="#92400e"/>
  <circle cx="520" cy="425" r="38" fill="url(#treeGrad)" opacity="0.8"/>
  <rect x="515" y="425" width="10" height="28" fill="#92400e"/>
  
  <!-- Walkway -->
  <path d="M0 450 Q400 430 800 450 L800 470 Q400 450 0 470 Z" fill="#e5e7eb" opacity="0.6"/>
  
  <!-- People silhouettes walking -->
  <g transform="translate(300, 420)">
    <ellipse cx="0" cy="25" rx="8" ry="3" fill="#4b5563" opacity="0.6"/>
    <circle cx="0" cy="0" r="6" fill="#6b7280"/>
    <rect x="-2" y="6" width="4" height="12" fill="#6b7280"/>
    <rect x="-3" y="18" width="2" height="8" fill="#6b7280"/>
    <rect x="1" y="18" width="2" height="8" fill="#6b7280"/>
  </g>
  
  <g transform="translate(380, 425)">
    <ellipse cx="0" cy="25" rx="8" ry="3" fill="#4b5563" opacity="0.6"/>
    <circle cx="0" cy="0" r="6" fill="#6b7280"/>
    <rect x="-2" y="6" width="4" height="12" fill="#6b7280"/>
    <rect x="-3" y="18" width="2" height="8" fill="#6b7280"/>
    <rect x="1" y="18" width="2" height="8" fill="#6b7280"/>
  </g>
  
  <!-- Clouds -->
  <circle cx="150" cy="80" r="25" fill="white" opacity="0.7"/>
  <circle cx="170" cy="75" r="30" fill="white" opacity="0.7"/>
  <circle cx="190" cy="80" r="20" fill="white" opacity="0.7"/>
  
  <circle cx="550" cy="60" r="20" fill="white" opacity="0.6"/>
  <circle cx="570" cy="55" r="25" fill="white" opacity="0.6"/>
  <circle cx="590" cy="60" r="18" fill="white" opacity="0.6"/>
  
  <!-- Mental health symbols (subtle) -->
  <g transform="translate(650, 100)" opacity="0.3">
    <!-- Heart symbol -->
    <path d="M0,6 C0,2 4,0 8,4 C12,0 16,2 16,6 C16,12 8,20 8,20 C8,20 0,12 0,6 Z" fill="#ef4444"/>
  </g>
  
  <g transform="translate(100, 120)" opacity="0.3">
    <!-- Brain/thought bubble -->
    <circle cx="8" cy="8" r="6" fill="#8b5cf6"/>
    <circle cx="4" cy="4" r="3" fill="#8b5cf6"/>
    <circle cx="12" cy="4" r="2" fill="#8b5cf6"/>
  </g>
  
  <!-- Sun -->
  <circle cx="700" cy="80" r="30" fill="#fbbf24" opacity="0.8"/>
  <path d="M700,35 L700,25 M735,80 L745,80 M725,55 L732,48 M675,55 L668,48 M725,105 L732,112 M675,105 L668,112 M700,125 L700,135 M665,80 L655,80" stroke="#fbbf24" stroke-width="3" opacity="0.8"/>
</svg>