<svg xmlns="http://www.w3.org/2000/svg" width="800" height="600" viewBox="0 0 800 600" fill="none">
  <defs>
    <linearGradient id="placeholderGrad" x1="0%" y1="0%" x2="100%" y2="100%">
      <stop offset="0%" style="stop-color:#e0f2fe;stop-opacity:1" />
      <stop offset="100%" style="stop-color:#f0f9ff;stop-opacity:1" />
    </linearGradient>
  </defs>
  
  <!-- Background -->
  <rect width="800" height="600" rx="24" fill="url(#placeholderGrad)"/>
  
  <!-- Simple campus buildings -->
  <rect x="100" y="240" width="120" height="160" fill="#cbd5e1" opacity="0.7" rx="8"/>
  <rect x="260" y="280" width="100" height="120" fill="#cbd5e1" opacity="0.7" rx="8"/>
  <rect x="400" y="220" width="140" height="180" fill="#cbd5e1" opacity="0.7" rx="8"/>
  <rect x="580" y="260" width="120" height="140" fill="#cbd5e1" opacity="0.7" rx="8"/>
  
  <!-- Trees -->
  <circle cx="200" cy="440" r="40" fill="#86efac" opacity="0.6"/>
  <rect x="192" y="440" width="16" height="40" fill="#84cc16"/>
  <circle cx="500" cy="460" r="30" fill="#86efac" opacity="0.6"/>
  <rect x="494" y="460" width="12" height="30" fill="#84cc16"/>
  
  <!-- Mental health icon -->
  <g transform="translate(400, 160)">
    <path d="M-20 -10 C-30 -20 -20 -30 0 -30 C20 -30 30 -20 20 -10 C20 -14 24 -14 28 -10 C32 -6 28 -2 24 -2 C20 -2 20 -6 20 -2 C24 6 20 10 0 10 C-20 10 -24 6 -20 -2 C-20 -6 -20 -2 -24 -2 C-28 -2 -32 -6 -28 -10 C-24 -14 -20 -14 -20 -10 Z" fill="#3b82f6" opacity="0.7"/>
    <circle cx="-6" cy="-4" r="2" fill="#1d4ed8"/>
    <circle cx="6" cy="-2" r="2" fill="#1d4ed8"/>
  </g>
  
  <!-- Text -->
  <g fill="#475569" font-family="Inter, Arial" text-anchor="middle">
    <text x="400" y="520" font-size="28" font-weight="600">MindWell Campus</text>
    <text x="400" y="550" font-size="16">Mental Health Support Platform</text>
  </g>
</svg>


