<svg width="48" height="48" viewBox="0 0 48 48" fill="none" xmlns="http://www.w3.org/2000/svg">
  <defs>
    <linearGradient id="headerLogoGrad" x1="0%" y1="0%" x2="100%" y2="100%">
      <stop offset="0%" style="stop-color:#3b82f6;stop-opacity:1" />
      <stop offset="50%" style="stop-color:#6366f1;stop-opacity:1" />
      <stop offset="100%" style="stop-color:#8b5cf6;stop-opacity:1" />
    </linearGradient>
  </defs>
  
  <!-- Background circle -->
  <circle cx="24" cy="24" r="22" fill="url(#headerLogoGrad)" stroke="white" stroke-width="2"/>
  
  <!-- Brain/Mind symbol -->
  <g transform="translate(24, 24)">
    <!-- Main brain shape -->
    <path d="M-8 -3 C-10 -8 -6 -10 0 -10 C6 -10 10 -8 8 -3 C8 -5 10 -5 12 -3 C14 -1 12 1 10 1 C8 1 8 -1 8 1 C10 5 6 7 0 7 C-6 7 -10 5 -8 1 C-8 -1 -8 1 -10 1 C-12 1 -14 -1 -12 -3 C-10 -5 -8 -5 -8 -3 Z" fill="white" opacity="0.95"/>
    
    <!-- Neural connections -->
    <circle cx="-3" cy="-1" r="1.2" fill="white"/>
    <circle cx="3" cy="0" r="1.2" fill="white"/>
    <circle cx="0" cy="3" r="1" fill="white"/>
    
    <!-- Connection lines -->
    <line x1="-3" y1="-1" x2="3" y2="0" stroke="white" stroke-width="0.8" opacity="0.8"/>
    <line x1="3" y1="0" x2="0" y2="3" stroke="white" stroke-width="0.8" opacity="0.8"/>
    <line x1="-3" y1="-1" x2="0" y2="3" stroke="white" stroke-width="0.6" opacity="0.6"/>
  </g>
  
  <!-- Subtle outer glow -->
  <circle cx="24" cy="24" r="22" fill="none" stroke="url(#headerLogoGrad)" stroke-width="1" opacity="0.3"/>
</svg>