<svg width="32" height="32" viewBox="0 0 32 32" fill="none" xmlns="http://www.w3.org/2000/svg">
  <defs>
    <linearGradient id="logoGrad" x1="0%" y1="0%" x2="100%" y2="100%">
      <stop offset="0%" style="stop-color:#3b82f6;stop-opacity:1" />
      <stop offset="100%" style="stop-color:#8b5cf6;stop-opacity:1" />
    </linearGradient>
  </defs>
  
  <!-- Background -->
  <rect width="32" height="32" rx="8" fill="url(#logoGrad)"/>
  
  <!-- Brain/Mind symbol -->
  <g transform="translate(16, 16)">
    <!-- Main brain shape -->
    <path d="M-6 -2 C-8 -6 -4 -8 0 -8 C4 -8 8 -6 6 -2 C6 -4 8 -4 10 -2 C12 0 10 2 8 2 C6 2 6 0 6 2 C8 6 4 8 0 8 C-4 8 -8 6 -6 2 C-6 0 -6 2 -8 2 C-10 2 -12 0 -10 -2 C-8 -4 -6 -4 -6 -2 Z" fill="white" opacity="0.9"/>
    
    <!-- Neural connections -->
    <circle cx="-2" cy="-1" r="1" fill="white"/>
    <circle cx="2" cy="0" r="1" fill="white"/>
    <circle cx="0" cy="2" r="0.8" fill="white"/>
    
    <!-- Connection lines -->
    <line x1="-2" y1="-1" x2="2" y2="0" stroke="white" stroke-width="0.5" opacity="0.7"/>
    <line x1="2" y1="0" x2="0" y2="2" stroke="white" stroke-width="0.5" opacity="0.7"/>
  </g>
</svg>